<?xml version="1.0" standalone="no"?>
<!DOCTYPE svg PUBLIC "-//W3C//DTD SVG 20010904//EN"
 "http://www.w3.org/TR/2001/REC-SVG-20010904/DTD/svg10.dtd">
<svg version="1.0" xmlns="http://www.w3.org/2000/svg"
 width="40px" height="40px" viewBox="12 12 1100.000000 1024.000000"
 preserveAspectRatio="xMidYMid meet">

<g transform="translate(0.000000,1024.000000) scale(0.10000,-0.100000)"
fill="white" stroke="none">
<path d="M2370 6393 c-1135 -1968 -2065 -3581 -2067 -3585 -2 -5 593 -8 1324
-8 l1328 0 302 533 303 532 -690 3 c-380 1 -690 5 -690 8 0 4 507 884 1127
1956 899 1556 1129 1947 1138 1936 7 -7 164 -266 349 -575 185 -310 340 -563
344 -563 9 0 628 1068 625 1079 -3 10 -1313 2244 -1322 2254 -4 4 -936 -1603
-2071 -3570z"/>
<path d="M6253 8243 c-160 -280 -456 -796 -657 -1148 -202 -351 -364 -645
-361 -652 4 -12 538 -938 585 -1015 l16 -27 353 590 c195 324 357 589 360 589
5 0 2251 -3887 2259 -3911 2 -5 -262 -9 -678 -9 -375 0 -680 -4 -678 -8 2 -4
142 -247 311 -540 l309 -532 1315 0 1315 0 -29 49 c-15 27 -948 1640 -2073
3585 -1125 1944 -2048 3536 -2051 3536 -3 0 -137 -228 -296 -507z"/>
<path d="M3427 5756 c-554 -954 -1007 -1737 -1007 -1740 0 -3 276 -6 613 -6
l613 0 390 661 c215 364 394 662 399 663 6 0 187 -297 404 -661 l394 -663 614
0 615 0 -20 33 c-11 17 -464 797 -1007 1732 -543 935 -990 1703 -994 1708 -4
4 -460 -773 -1014 -1727z"/>
<path d="M6235 5788 c-170 -287 -311 -524 -313 -528 -1 -4 171 -317 383 -696
l385 -689 -774 -3 -773 -2 -298 -530 c-164 -292 -295 -533 -293 -535 3 -3 905
-4 2006 -3 l2001 3 -1000 1745 c-550 960 -1003 1748 -1007 1752 -4 4 -146
-228 -317 -514z"/>
<path d="M3447 3332 c-543 -957 -987 -1742 -987 -1745 0 -4 904 -7 2009 -7
l2009 0 -290 518 c-159 284 -296 527 -304 540 l-14 22 -784 0 -784 0 379 670
c208 369 379 675 379 681 0 10 -603 1035 -619 1052 -4 4 -451 -775 -994 -1731z"/>
<path d="M1407 2318 c-603 -1062 -1107 -1951 -1107 -1954 0 -2 1867 -4 4149
-4 l4149 0 -671 1150 -671 1150 -604 0 c-493 0 -603 -2 -600 -13 2 -7 150
-281 331 -608 180 -328 327 -599 327 -602 0 -4 -1012 -7 -2250 -7 -1631 0
-2250 3 -2250 11 0 6 144 280 320 609 176 329 320 601 320 604 0 3 -281 6
-624 6 l-625 0 -194 -342z"/>
</g>
</svg>
