<svg xmlns="http://www.w3.org/2000/svg" version="1.0" width="900.000000pt" height="512.000000pt" viewBox="0 0 900.000000 512.000000" preserveAspectRatio="xMidYMid meet">

<g transform="translate(0.000000,512.000000) scale(0.100000,-0.100000)" fill="#ffffff" stroke="none">
<path d="M4467 4132 c-15 -16 -17 -54 -17 -332 l0 -314 -203 202 c-209 208 -213 211 -254 179 -33 -25 -11 -54 222 -287 l235 -235 0 -330 0 -330 -508 508 c-279 279 -515 507 -525 507 -22 0 -57 -35 -57 -57 0 -9 97 -114 215 -233 l215 -215 -293 -293 -292 -292 -131 0 c-120 0 -133 -2 -150 -21 -17 -19 -17 -23 -3 -47 15 -27 15 -27 149 -30 l135 -2 292 -293 293 -292 -215 -215 c-118 -119 -215 -224 -215 -233 0 -22 35 -57 57 -57 10 0 246 228 525 507 l508 508 0 -330 0 -330 -235 -235 c-164 -164 -235 -241 -235 -257 0 -21 33 -53 54 -53 6 0 101 91 213 202 l203 202 2 -319 3 -319 27 -15 c24 -14 28 -14 47 3 20 19 21 28 21 335 l0 315 203 -202 c209 -208 213 -211 255 -179 32 25 10 54 -223 287 l-235 235 0 330 0 330 508 -508 c279 -279 515 -507 525 -507 22 0 57 35 57 57 0 9 -94 112 -210 227 l-209 211 296 298 297 297 121 0 c111 0 124 2 141 21 17 19 17 23 3 47 -14 27 -17 27 -141 32 l-126 5 -297 294 -297 294 211 211 c116 117 211 220 211 229 0 22 -35 57 -57 57 -10 0 -246 -228 -525 -507 l-508 -508 0 330 0 330 235 235 c164 164 235 241 235 257 0 21 -33 53 -54 53 -6 0 -101 -91 -213 -202 l-203 -202 0 316 c0 316 0 317 -22 332 -29 21 -41 20 -61 -2z m938 -1262 l260 -260 -210 0 -210 0 -158 152 -158 151 108 109 c59 59 108 108 108 108 0 0 117 -117 260 -260z m-1480 -110 l-150 -150 -210 0 -210 0 255 255 255 255 105 -105 105 -105 -150 -150z m1055 -35 l115 -115 -235 0 -235 0 115 115 c63 63 117 115 120 115 3 0 57 -52 120 -115z m-715 -5 l110 -110 -225 0 -225 0 110 110 c60 61 112 110 115 110 3 0 55 -49 115 -110z m-340 -360 l150 -150 -105 -105 -105 -105 -255 255 -255 255 210 0 210 0 150 -150z m337 38 l-112 -113 -112 113 -113 112 225 0 225 0 -113 -112z m715 -5 l-117 -118 -117 118 -118 117 235 0 235 0 -118 -117z m428 -143 l-260 -260 -102 102 c-57 57 -103 105 -103 108 0 3 66 74 146 158 l146 152 216 0 217 0 -260 -260z" fill="#ffffff"/>
</g>
</svg>